<mxfile host="app.diagrams.net" modified="2023-09-02T14:02:18.691Z" agent="Mozilla/5.0 (Windows NT 10.0; Win64; x64) AppleWebKit/537.36 (KHTML, like Gecko) Chrome/116.0.0.0 Safari/537.36 Edg/116.0.1938.62" etag="TWi6L1EdAS0p2J9VyzVN" version="21.6.9" type="github">
  <diagram name="第 1 页" id="NdMm5oTjZDWahYiceiZe">
    <mxGraphModel dx="522" dy="824" grid="1" gridSize="10" guides="1" tooltips="1" connect="1" arrows="1" fold="1" page="1" pageScale="1" pageWidth="827" pageHeight="1169" math="0" shadow="0">
      <root>
        <mxCell id="0" />
        <mxCell id="1" parent="0" />
        <mxCell id="7tdOnn2KZ6qiz_F1eBLT-1" value="&lt;font style=&quot;font-size: 20px;&quot;&gt;SBRU booking system:&lt;br&gt;1.Provide information of available resorts (including available weeks, room rates, room capacity)&lt;br&gt;2.Allow students to research and book rooms&lt;br&gt;2.Make reservations according to students&#39; requests&lt;/font&gt;" style="text;html=1;strokeColor=none;fillColor=none;align=center;verticalAlign=middle;whiteSpace=wrap;rounded=0;" vertex="1" parent="1">
          <mxGeometry x="20" y="20" width="490" height="200" as="geometry" />
        </mxCell>
        <mxCell id="7tdOnn2KZ6qiz_F1eBLT-2" value="SBRU booking system" style="shape=umlActor;verticalLabelPosition=bottom;verticalAlign=top;html=1;" vertex="1" parent="1">
          <mxGeometry x="120" y="460" width="30" height="60" as="geometry" />
        </mxCell>
        <mxCell id="7tdOnn2KZ6qiz_F1eBLT-5" value="Get information of available resorts" style="ellipse;whiteSpace=wrap;html=1;" vertex="1" parent="1">
          <mxGeometry x="280" y="330" width="140" height="70" as="geometry" />
        </mxCell>
        <mxCell id="7tdOnn2KZ6qiz_F1eBLT-6" value="Display information of available resorts" style="ellipse;whiteSpace=wrap;html=1;" vertex="1" parent="1">
          <mxGeometry x="280" y="410" width="140" height="70" as="geometry" />
        </mxCell>
        <mxCell id="7tdOnn2KZ6qiz_F1eBLT-7" value="Assign students to available rooms" style="ellipse;whiteSpace=wrap;html=1;" vertex="1" parent="1">
          <mxGeometry x="280" y="490" width="140" height="70" as="geometry" />
        </mxCell>
      </root>
    </mxGraphModel>
  </diagram>
</mxfile>
